<mxfile host="app.diagrams.net" modified="2022-08-25T03:23:14.880Z" agent="5.0 (Macintosh; Intel Mac OS X 10_15_7) AppleWebKit/537.36 (KHTML, like Gecko) Chrome/104.0.0.0 Safari/537.36" etag="Gg7dtvIeDiJORqPaXqcq" version="20.2.6" type="github">
  <diagram id="iViNmh0XtjlHKJBfJO1G" name="第 1 页">
    <mxGraphModel dx="1426" dy="623" grid="1" gridSize="10" guides="1" tooltips="1" connect="1" arrows="1" fold="1" page="1" pageScale="1" pageWidth="827" pageHeight="1169" math="0" shadow="0">
      <root>
        <mxCell id="0" />
        <mxCell id="1" parent="0" />
        <mxCell id="JWVld6cRFzR7013corsY-1" value="&lt;span style=&quot;font-size: 24px;&quot;&gt;管理员&lt;/span&gt;" style="rounded=0;whiteSpace=wrap;html=1;strokeColor=#97D077;" vertex="1" parent="1">
          <mxGeometry x="340" y="270" width="120" height="50" as="geometry" />
        </mxCell>
        <mxCell id="JWVld6cRFzR7013corsY-2" value="&lt;span style=&quot;font-size: 24px;&quot;&gt;用户名&lt;/span&gt;" style="ellipse;whiteSpace=wrap;html=1;strokeColor=#97D077;" vertex="1" parent="1">
          <mxGeometry x="120" y="270" width="130" height="50" as="geometry" />
        </mxCell>
        <mxCell id="JWVld6cRFzR7013corsY-3" value="&lt;span style=&quot;font-size: 24px;&quot;&gt;密码&lt;/span&gt;" style="ellipse;whiteSpace=wrap;html=1;strokeColor=#97D077;" vertex="1" parent="1">
          <mxGeometry x="530" y="270" width="130" height="50" as="geometry" />
        </mxCell>
        <mxCell id="JWVld6cRFzR7013corsY-4" value="" style="endArrow=classic;html=1;rounded=0;strokeColor=#3399FF;exitX=1;exitY=0.5;exitDx=0;exitDy=0;" edge="1" parent="1" source="JWVld6cRFzR7013corsY-1" target="JWVld6cRFzR7013corsY-3">
          <mxGeometry width="50" height="50" relative="1" as="geometry">
            <mxPoint x="390" y="350" as="sourcePoint" />
            <mxPoint x="440" y="300" as="targetPoint" />
          </mxGeometry>
        </mxCell>
        <mxCell id="JWVld6cRFzR7013corsY-6" value="" style="endArrow=classic;html=1;rounded=0;strokeColor=#3399FF;exitX=0;exitY=0.5;exitDx=0;exitDy=0;" edge="1" parent="1" source="JWVld6cRFzR7013corsY-1" target="JWVld6cRFzR7013corsY-2">
          <mxGeometry width="50" height="50" relative="1" as="geometry">
            <mxPoint x="470" y="305" as="sourcePoint" />
            <mxPoint x="540" y="305" as="targetPoint" />
          </mxGeometry>
        </mxCell>
      </root>
    </mxGraphModel>
  </diagram>
</mxfile>
